<svg xmlns="http://www.w3.org/2000/svg" enable-background="new 0 0 32 32" viewBox="0 0 32 32" id="user-group">
  <path fill="#B7E4C7" d="M8.34998 14.98999c1.5871 0 3.01208-.74658 3.948-1.90588C13.31311 13.8996 14.59961 14.39063 16 14.39063c1.39972 0 2.68567-.4906 3.70068-1.30536.93884 1.1579 2.36053 1.90472 3.94934 1.90472 2.79999 0 5.07996-2.28003 5.07996-5.08002s-2.27997-5.08002-5.07996-5.08002c-.90277 0-1.76837.24744-2.52271.68121C20.10187 3.7395 18.18994 2.54199 16 2.54199c-2.19116 0-4.10382 1.19879-5.12872 2.97211-.75317-.43384-1.61707-.68414-2.5213-.68414-2.79999 0-5.07996 2.28003-5.07996 5.08002S5.54999 14.98999 8.34998 14.98999zM23.65002 7.82996c1.14996 0 2.07996.93005 2.07996 2.08002 0 1.15002-.92999 2.08002-2.07996 2.08002-.99744 0-1.836-.7146-2.02631-1.67065.15784-.47742.25275-.98175.28339-1.50385C22.27466 8.21564 22.92969 7.82996 23.65002 7.82996zM16 5.54199c1.6123 0 2.9248 1.31201 2.9248 2.92432S17.6123 11.39063 16 11.39063s-2.92432-1.31201-2.92432-2.92432S14.3877 5.54199 16 5.54199zM8.34998 7.82996c.7207 0 1.37604.38593 1.74341.98633.0307.52148.12543 1.02533.28302 1.50226-.19.95648-1.02875 1.67145-2.02643 1.67145-1.14996 0-2.07996-.92999-2.07996-2.08002C6.27002 8.76001 7.20001 7.82996 8.34998 7.82996zM29.2002 17.28955c-1.48145-1.48291-3.45313-2.29932-5.5498-2.29932-1.33582 0-2.61566.34552-3.76404.97791C18.70105 15.42346 17.3877 15.11133 16 15.11133c-1.38757 0-2.70087.31213-3.88605.85681-1.14856-.63239-2.42841-.97791-3.76385-.97791-4.32861 0-7.8501 3.52148-7.8501 7.84961v2.83008c0 .82861.67139 1.5 1.5 1.5h4.65186v.78809c0 .82861.67139 1.5 1.5 1.5h15.69678c.82813 0 1.5-.67139 1.5-1.5v-.78809H30c.82813 0 1.5-.67139 1.5-1.5v-2.83008C31.5 20.74316 30.68359 18.77148 29.2002 17.28955zM3.5 22.83984c0-2.67432 2.17578-4.84961 4.8501-4.84961.28699 0 .5686.03064.84576.07916-1.51031 1.60724-2.45642 3.74353-2.5293 6.10052H3.5V22.83984zM22.34863 26.45801H9.65186v-1.99805c0-3.50049 2.84766-6.34863 6.34814-6.34863 3.50098 0 6.34863 2.84814 6.34863 6.34863V26.45801zM28.5 24.16992h-3.16608c-.07288-2.35706-1.01898-4.49335-2.52936-6.10059.27716-.04852.55872-.0791.84583-.0791 1.29492 0 2.5127.50439 3.42871 1.4209.91602.91553 1.4209 2.1333 1.4209 3.42871V24.16992z"></path>
</svg>
