<svg xmlns="http://www.w3.org/2000/svg" xmlns:xlink="http://www.w3.org/1999/xlink" width="40" zoomAndPan="magnify" viewBox="0 0 30 30.000001" height="40" preserveAspectRatio="xMidYMid meet" version="1.0"><defs><clipPath id="872d376c9b"><path d="M 4.144531 3.601562 L 25.917969 3.601562 L 25.917969 25.375 L 4.144531 25.375 Z M 4.144531 3.601562 " clip-rule="nonzero"/></clipPath><clipPath id="ef25b5fce7"><path d="M 4.144531 4 L 25.917969 4 L 25.917969 25 L 4.144531 25 Z M 4.144531 4 " clip-rule="nonzero"/></clipPath></defs><g clip-path="url(#872d376c9b)"><path fill="#b7e4c7" d="M 15.03125 -4.140625 C 4.6875 -4.140625 -3.683594 4.230469 -3.683594 14.574219 C -3.683594 24.914062 4.6875 33.285156 15.03125 33.285156 C 25.371094 33.285156 33.742188 24.917969 33.742188 14.574219 C 33.742188 4.230469 25.371094 -4.140625 15.03125 -4.140625 Z M 15.03125 31.085938 C 5.925781 31.085938 -1.480469 23.675781 -1.480469 14.574219 C -1.480469 5.46875 5.925781 -1.9375 15.03125 -1.9375 C 24.132812 -1.9375 31.539062 5.46875 31.539062 14.574219 C 31.539062 23.675781 24.132812 31.085938 15.03125 31.085938 Z M 15.03125 31.085938 " fill-opacity="1" fill-rule="nonzero"/></g><g clip-path="url(#ef25b5fce7)"><path fill="#b7e4c7" d="M 23.460938 5.882812 C 21.386719 3.808594 18.011719 3.808594 15.9375 5.882812 L 12.566406 9.253906 C 12.058594 9.757812 11.679688 10.339844 11.421875 10.960938 C 10.785156 11.230469 10.203125 11.617188 9.710938 12.109375 L 6.339844 15.480469 C 4.265625 17.554688 4.265625 20.929688 6.339844 23.003906 C 6.472656 23.097656 7.78125 24.820312 10.359375 24.820312 C 11.722656 24.820312 13.085938 24.300781 14.121094 23.265625 L 17.496094 19.890625 C 18 19.386719 18.378906 18.804688 18.640625 18.183594 C 19.273438 17.917969 19.859375 17.527344 20.347656 17.039062 L 23.722656 13.664062 C 25.796875 11.589844 25.796875 8.214844 23.722656 6.140625 Z M 22.164062 12.109375 L 18.984375 15.289062 C 18.660156 13.261719 17.34375 12.257812 17.234375 12.109375 C 16.804688 11.679688 16.109375 11.679688 15.679688 12.109375 C 15.25 12.539062 15.25 13.234375 15.679688 13.664062 L 15.9375 13.925781 C 17.15625 15.144531 17.15625 17.117188 15.9375 18.335938 L 12.566406 21.707031 C 11.347656 22.925781 9.371094 22.925781 8.15625 21.707031 L 7.894531 21.449219 C 6.679688 20.234375 6.679688 18.253906 7.894531 17.039062 L 11.078125 13.855469 C 11.398438 15.882812 12.714844 16.890625 12.824219 17.039062 C 13.253906 17.46875 13.953125 17.46875 14.382812 17.039062 C 14.8125 16.609375 14.8125 15.910156 14.382812 15.480469 C 14.285156 15.347656 13.207031 14.578125 13.207031 13.015625 C 13.207031 12.183594 13.53125 11.402344 14.121094 10.8125 L 17.496094 7.4375 C 18.710938 6.222656 20.6875 6.222656 21.90625 7.4375 L 22.164062 7.699219 C 23.378906 8.914062 23.378906 10.894531 22.164062 12.109375 Z M 22.164062 12.109375 " fill-opacity="1" fill-rule="nonzero"/></g></svg>