<svg xmlns="http://www.w3.org/2000/svg" xmlns:xlink="http://www.w3.org/1999/xlink" width="40" zoomAndPan="magnify" viewBox="0 0 30 30.000001" height="40" preserveAspectRatio="xMidYMid meet" version="1.0"><defs><clipPath id="fb16bc9f7c"><path d="M 6 3.230469 L 24 3.230469 L 24 25.730469 L 6 25.730469 Z M 6 3.230469 " clip-rule="nonzero"/></clipPath></defs><g clip-path="url(#fb16bc9f7c)"><path fill="#b7e4c7" d="M 14.964844 13.074219 C 12.25 13.074219 10.042969 10.867188 10.042969 8.152344 C 10.042969 5.4375 12.25 3.230469 14.964844 3.230469 C 17.679688 3.230469 19.886719 5.4375 19.886719 8.152344 C 19.886719 10.867188 17.679688 13.074219 14.964844 13.074219 Z M 14.964844 4.636719 C 13.023438 4.636719 11.449219 6.214844 11.449219 8.152344 C 11.449219 10.089844 13.023438 11.667969 14.964844 11.667969 C 16.902344 11.667969 18.480469 10.089844 18.480469 8.152344 C 18.480469 6.214844 16.902344 4.636719 14.964844 4.636719 Z M 22.699219 25.730469 C 22.503906 25.730469 22.339844 25.660156 22.199219 25.523438 C 22.0625 25.386719 21.996094 25.222656 21.996094 25.027344 L 21.996094 20.726562 C 21.996094 20.40625 21.964844 20.089844 21.898438 19.773438 C 21.835938 19.460938 21.746094 19.15625 21.621094 18.859375 C 21.5 18.5625 21.347656 18.28125 21.171875 18.015625 C 20.992188 17.75 20.789062 17.503906 20.5625 17.277344 C 20.335938 17.050781 20.089844 16.847656 19.824219 16.667969 C 19.558594 16.492188 19.277344 16.339844 18.980469 16.21875 C 18.683594 16.09375 18.378906 16.003906 18.066406 15.941406 C 17.75 15.878906 17.433594 15.84375 17.113281 15.84375 L 12.8125 15.84375 C 12.492188 15.84375 12.175781 15.878906 11.863281 15.941406 C 11.546875 16.003906 11.242188 16.09375 10.945312 16.21875 C 10.652344 16.339844 10.371094 16.492188 10.101562 16.667969 C 9.835938 16.847656 9.589844 17.050781 9.363281 17.277344 C 9.136719 17.503906 8.933594 17.75 8.757812 18.015625 C 8.578125 18.28125 8.429688 18.5625 8.304688 18.859375 C 8.183594 19.15625 8.089844 19.460938 8.027344 19.773438 C 7.964844 20.089844 7.933594 20.40625 7.933594 20.726562 L 7.933594 25.027344 C 7.933594 25.222656 7.863281 25.386719 7.726562 25.523438 C 7.589844 25.660156 7.421875 25.730469 7.230469 25.730469 C 7.035156 25.730469 6.871094 25.660156 6.730469 25.523438 C 6.59375 25.386719 6.527344 25.222656 6.527344 25.027344 L 6.527344 20.726562 C 6.527344 17.261719 9.347656 14.4375 12.8125 14.4375 L 17.113281 14.4375 C 20.582031 14.4375 23.402344 17.261719 23.402344 20.726562 L 23.402344 25.027344 C 23.402344 25.222656 23.332031 25.386719 23.195312 25.523438 C 23.058594 25.660156 22.890625 25.730469 22.699219 25.730469 Z M 22.699219 25.730469 " fill-opacity="1" fill-rule="nonzero"/></g><path fill="#b7e4c7" d="M 16.171875 8.347656 L 19.683594 4.835938 C 20.007812 4.515625 20.007812 3.988281 19.683594 3.667969 C 19.363281 3.34375 18.835938 3.34375 18.511719 3.667969 L 15.003906 7.179688 L 11.492188 3.667969 C 11.167969 3.34375 10.644531 3.34375 10.320312 3.667969 C 9.996094 3.988281 9.996094 4.515625 10.320312 4.835938 L 13.832031 8.347656 L 10.320312 11.859375 C 9.996094 12.183594 9.996094 12.707031 10.320312 13.03125 C 10.640625 13.355469 11.167969 13.355469 11.492188 13.03125 L 15.003906 9.519531 L 18.511719 13.03125 C 18.835938 13.355469 19.359375 13.355469 19.683594 13.03125 C 20.007812 12.707031 20.007812 12.183594 19.683594 11.859375 Z M 16.171875 8.347656 " fill-opacity="1" fill-rule="evenodd"/></svg>